# xmcd
#
# Track frame offsets: 
#        150
#        14389
#        26361
#        40158
#        56666
#        71191
#        86310
#        107727
#        121614
#        135801
#        147935
#        163753
#        179264
#
# Disc length: 2552 seconds
#
# Revision: 0
# Processed by: cddbd v1.5.2PL0 Copyright (c) Steve Scherf et al.
# Submitted via: ExactAudioCopy v1.0b3
#
DISCID=a209f60d
DTITLE=Decade - Legacy Five
DYEAR=2009
DGENRE=Gospel
TTITLE0=I'm Feeling Fine
TTITLE1=Joy
TTITLE2=Vessel of Mercy
TTITLE3=I Found Grace
TTITLE4=The Prettiest Flowers
TTITLE5=Strong in the Strength
TTITLE6=That's What Grace Is For
TTITLE7=Out of My Darkness
TTITLE8=Jericho Road
TTITLE9=I Know That I Know
TTITLE10=What a Friend
TTITLE11=Steppin' Out On the Water
TTITLE12=Why Wouldn't I
EXTD=
EXTT0=
EXTT1=
EXTT2=
EXTT3=
EXTT4=
EXTT5=
EXTT6=
EXTT7=
EXTT8=
EXTT9=
EXTT10=
EXTT11=
EXTT12=
PLAYORDER=
